<?xml version="1.0" encoding="UTF-8"?>
<svg xmlns="http://www.w3.org/2000/svg" version="1.1" viewBox="0 0 500 143.1">
  <defs>
    <style>
      .cls-1 {
        fill: #1d1d1b;
      }

      .cls-2 {
        fill: #e5211c;
      }
    </style>
  </defs>
  <!-- Generator: Adobe Illustrator 28.7.5, SVG Export Plug-In . SVG Version: 1.2.0 Build 176)  -->
  <g>
    <g id="Calque_1">
      <g>
        <path class="cls-1" d="M38.9,6.2h13.4v69.7c0,27.7-13.6,36.2-31.5,36.2s-11-1.1-14.4-2.5l2-11c2.8,1.1,6.8,2,11.3,2,12.1,0,19.2-5.4,19.2-25.8V6.2Z"/>
        <path class="cls-1" d="M91.6,77.6l-10.8,32.8h-13.9L102.3,6.2h16.2l35.5,104.1h-14.4l-11.1-32.8h-36.9ZM125.8,67.1l-10.2-30c-2.3-6.8-3.9-13-5.4-19h-.3c-1.5,6.2-3.2,12.5-5.3,18.9l-10.2,30.1h31.4Z"/>
        <path class="cls-1" d="M169.3,7.5c6.5-1.1,15-2,25.8-2s23,3.1,29.2,8.7c5.7,4.9,9.1,12.5,9.1,21.8s-2.8,16.8-8,22.3c-7.1,7.6-18.7,11.4-31.8,11.4s-7.7-.2-10.8-.9v41.7h-13.4V7.5ZM182.8,57.7c2.9.8,6.6,1.1,11.1,1.1,16.2,0,26.1-7.9,26.1-22.2s-9.7-20.4-24.6-20.4-10.4.5-12.7,1.1v40.5Z"/>
        <path class="cls-2" d="M265,6.2v43.6h50.4V6.2h13.6v104.1h-13.6v-48.8h-50.4v48.8h-13.4V6.2h13.4Z"/>
        <path class="cls-2" d="M406.2,61.5h-40.5v37.5h45.1v11.3h-58.6V6.2h56.2v11.3h-42.8v32.9h40.5v11.1Z"/>
        <path class="cls-2" d="M450.5,17.7h-31.7V6.2h77.1v11.4h-31.8v92.7h-13.6V17.7Z"/>
      </g>
      <rect class="cls-2" x="6.5" y="120" width="489.5" height="15.7"/>
    </g>
  </g>
</svg>